<svg xmlns="http://www.w3.org/2000/svg" width="40" height="40" viewBox="0 0 40 40">
  <g id="Group_34966" data-name="Group 34966" transform="translate(-16 -64)">
    <path id="Path_92722" data-name="Path 92722" d="M8,0H32a8,8,0,0,1,8,8V32a8,8,0,0,1-8,8H8a8,8,0,0,1-8-8V8A8,8,0,0,1,8,0Z" transform="translate(16 64)" fill="#ee264e"/>
    <path id="Union_1" data-name="Union 1" d="M2.72,16.356a6.506,6.506,0,0,1-1.011-.13,3.8,3.8,0,0,1-.513-.148,2.48,2.48,0,0,1-.509-.252,1.616,1.616,0,0,1-.452-.437,1.362,1.362,0,0,1-.226-.621,1.729,1.729,0,0,1,.05-.606,2.629,2.629,0,0,1,.194-.517,4,4,0,0,1,.261-.452c.094-.142.194-.278.3-.409a8.426,8.426,0,0,1,.663-.734q.348-.344.721-.655c.124-.1.248-.207.376-.305s.255-.2.386-.29a.168.168,0,0,1,.222.251l-.324.349-.32.349c-.21.235-.418.469-.616.71s-.387.484-.559.734c-.085.125-.166.251-.241.379a3.965,3.965,0,0,0-.2.385,2.115,2.115,0,0,0-.127.381,1,1,0,0,0-.021.342.572.572,0,0,0,.1.266.847.847,0,0,0,.239.214,2.285,2.285,0,0,0,.757.266,5.793,5.793,0,0,0,.884.092A12.44,12.44,0,0,0,4.6,15.427c.617-.073,1.234-.176,1.847-.3s1.222-.274,1.826-.439,1.2-.352,1.793-.559,1.173-.431,1.738-.684a11.73,11.73,0,0,0,1.615-.862c.124-.082.246-.168.358-.255a3.049,3.049,0,0,0,.308-.272,1.645,1.645,0,0,0,.228-.286.74.74,0,0,0,.1-.266.5.5,0,0,0-.022-.24.935.935,0,0,0-.152-.269,2.635,2.635,0,0,0-.6-.526,6.639,6.639,0,0,0-.77-.439c-.271-.133-.553-.256-.839-.37-.573-.229-1.165-.427-1.765-.608s-1.208-.346-1.82-.5q-.459-.116-.922-.227L7.063,8.21c-.079-.019-.158-.04-.241-.062l-.131-.037c-.025-.008-.049-.015-.082-.027-.016-.006-.034-.013-.061-.025l-.023-.011-.032-.017c-.01-.005-.032-.019-.05-.032a.527.527,0,0,1-.113-.109.494.494,0,0,1-.106-.244c-.4,1.07-.793,2.142-1.21,3.206-.11.285-.219.57-.332.853s-.227.567-.343.85-.233.565-.355.845-.243.561-.377.841a.214.214,0,0,1-.4-.151h0c.164-.585.34-1.172.521-1.754.092-.291.183-.583.278-.872s.191-.58.287-.869c.382-1.16.791-2.311,1.2-3.463s.815-2.3,1.231-3.453l.19-.521q-.314.1-.626.215a19.536,19.536,0,0,0-2.97,1.333h0a.5.5,0,0,1-.493-.867A19.966,19.966,0,0,1,5.941,2.419q.7-.257,1.42-.472c.107-.284.217-.568.331-.852C7.75.95,7.809.806,7.873.659c.032-.074.065-.148.106-.229.02-.041.04-.082.074-.139.009-.014.019-.031.034-.051S8.1.219,8.115.2L8.124.192,8.137.178,8.15.163l.02-.02A.57.57,0,0,1,8.234.092.583.583,0,0,1,8.3.053.525.525,0,0,1,8.418.011a.506.506,0,0,1,.422.1.5.5,0,0,1,.113.125A.535.535,0,0,1,9,.317c.012.031.013.036.019.055s.009.036.01.043,0,.02,0,.029,0,.019,0,.025l0,.02V.534a.5.5,0,0,1-.2.4c-.02.042-.041.087-.061.133-.06.131-.118.269-.176.407-.02.047-.039.1-.059.144q.328-.086.658-.164.827-.2,1.665-.347c.559-.1,1.12-.184,1.686-.25S13.689.739,14.266.723c.288-.008.578-.008.872,0a7.524,7.524,0,0,1,.9.087,4.161,4.161,0,0,1,.467.1,2.237,2.237,0,0,1,.5.2,1.364,1.364,0,0,1,.269.2,1.034,1.034,0,0,1,.239.34.959.959,0,0,1,.073.448,1.153,1.153,0,0,1-.1.368,1.749,1.749,0,0,1-.143.26q-.076.113-.156.211a3.776,3.776,0,0,1-.334.353,6.726,6.726,0,0,1-.706.568,14.909,14.909,0,0,1-1.477.905c-.5.274-1.008.527-1.519.769-1.021.484-2.057.924-3.1,1.342q-.782.312-1.571.607l-.05.019.269.068c.623.159,1.244.328,1.863.517s1.235.4,1.844.643c.3.123.608.256.907.4a7.471,7.471,0,0,1,.886.51,4.5,4.5,0,0,1,.425.326,2.909,2.909,0,0,1,.4.415,1.9,1.9,0,0,1,.307.563,1.493,1.493,0,0,1,.057.7,1.722,1.722,0,0,1-.237.62,2.613,2.613,0,0,1-.367.46,3.943,3.943,0,0,1-.409.358c-.14.107-.28.2-.422.3a12.641,12.641,0,0,1-1.756.928c-.6.264-1.206.5-1.82.706a28.073,28.073,0,0,1-3.754.988c-.637.121-1.279.219-1.928.282-.465.045-.933.074-1.407.074Q3,16.371,2.72,16.356Zm11.575-14.6c-.538.015-1.081.059-1.623.121a29.02,29.02,0,0,0-3.233.572q-.689.162-1.37.355-.236.6-.468,1.2Q6.988,5.6,6.39,7.205L6.4,7.193a.506.506,0,0,1,.149-.083L6.571,7.1l.19-.065.2-.068.39-.14q.39-.142.779-.289.777-.293,1.548-.6c1.027-.414,2.044-.85,3.037-1.324.5-.237.987-.484,1.465-.746a14.285,14.285,0,0,0,1.372-.844,5.7,5.7,0,0,0,.6-.479,2.684,2.684,0,0,0,.241-.254c.035-.042.066-.085.093-.125a.792.792,0,0,0,.059-.105l0-.005a.491.491,0,0,0-.054-.036,1.291,1.291,0,0,0-.274-.108,2.983,2.983,0,0,0-.349-.077,6.429,6.429,0,0,0-.769-.074q-.221-.01-.444-.009Q14.473,1.751,14.294,1.756Zm4.072,11.778a2.129,2.129,0,0,1-.61-.11c-.048-.016-.1-.034-.143-.053l-.017-.007-.008,0-.013-.005-.049-.023a1.053,1.053,0,0,1-.095-.053,1.14,1.14,0,0,1-.31-.29,1.366,1.366,0,0,1-.176-.331,1.894,1.894,0,0,1-.085-.316,2.914,2.914,0,0,1-.043-.574,5.2,5.2,0,0,1,.038-.53,9.085,9.085,0,0,1,.184-1c.077-.323.166-.64.261-.953q.086-.283.179-.56A.468.468,0,0,1,16.964,8h0c.589-.767,1.16-1.547,1.7-2.342q.383-.888.794-1.762.205-.437.416-.871l.213-.433.109-.217.056-.112c.011-.023.023-.044.034-.064l.03-.054c.08-.145.163-.289.251-.433s.18-.287.29-.436c.028-.037.057-.075.089-.114s.067-.079.112-.125c.023-.023.049-.047.083-.075A.7.7,0,0,1,21.21.914a.683.683,0,0,1,.111-.059.6.6,0,0,1,.1-.032A.557.557,0,0,1,21.6.816a.534.534,0,0,1,.391.255.547.547,0,0,1,.055.126.378.378,0,0,1,.012.046c0,.015.005.027.007.039a.672.672,0,0,1,.008.109.943.943,0,0,1-.011.13c-.005.035-.011.065-.018.094-.013.056-.027.105-.041.152-.029.093-.059.177-.092.26a10.049,10.049,0,0,1-.425.915c-.152.293-.311.578-.475.859-.328.563-.674,1.11-1.033,1.648q-.157.236-.318.469c-.272.626-.533,1.256-.777,1.891-.226.588-.437,1.18-.619,1.775-.091.3-.175.6-.247.893a8.07,8.07,0,0,0-.17.884,4.058,4.058,0,0,0-.034.425,2.029,2.029,0,0,0,.023.379.611.611,0,0,0,.083.238.147.147,0,0,0,.035.037s.006,0,.01.005l.005,0h0l0,0,.01,0c.027.011.055.022.082.031a1.123,1.123,0,0,0,.661.025,1.707,1.707,0,0,0,.65-.349,2.949,2.949,0,0,0,.555-.623,2.548,2.548,0,0,1-.5-.422,2.041,2.041,0,0,1-.526-1.1,1.521,1.521,0,0,1,.061-.68A1.246,1.246,0,0,1,19.152,9a1.108,1.108,0,0,1,.3-.277,1.14,1.14,0,0,1,.378-.149,1.334,1.334,0,0,1,.372-.018,1.644,1.644,0,0,1,.172.026,1.389,1.389,0,0,1,.173.048,1.254,1.254,0,0,1,.338.178,1.214,1.214,0,0,1,.27.279,1.376,1.376,0,0,1,.166.323,1.884,1.884,0,0,1,.1.63,2.857,2.857,0,0,1-.059.572,3.73,3.73,0,0,1-.149.528c0,.013-.009.025-.014.037a1.607,1.607,0,0,0,.244.049,2.419,2.419,0,0,0,.762-.044,4.777,4.777,0,0,0,.794-.24,8.4,8.4,0,0,0,.785-.358,17.55,17.55,0,0,0,1.523-.9c.5-.326.992-.668,1.487-1.015s.99-.7,1.5-1.035c.256-.169.516-.334.785-.492a7.321,7.321,0,0,1,.849-.435,3.474,3.474,0,0,1,.479-.161,1.833,1.833,0,0,1,.554-.053,1.173,1.173,0,0,1,.308.065l.038.014.033.014c.022.009.044.02.065.031a1.393,1.393,0,0,1,.128.074,1.145,1.145,0,0,1,.237.207.986.986,0,0,1,.163.281.971.971,0,0,1,.059.3,1.245,1.245,0,0,1-.021.28,1.918,1.918,0,0,1-.164.48,3.12,3.12,0,0,1-.245.41,4.063,4.063,0,0,1-.289.365.046.046,0,0,1-.079-.044,8.874,8.874,0,0,0,.249-.858,1.834,1.834,0,0,0,.044-.4.953.953,0,0,0-.021-.173.5.5,0,0,0-.055-.136.381.381,0,0,0-.083-.1.543.543,0,0,0-.117-.074.732.732,0,0,0-.073-.029l-.039-.014-.02-.006-.015,0a.511.511,0,0,0-.137-.014,1.276,1.276,0,0,0-.341.06,2.93,2.93,0,0,0-.376.142,6.7,6.7,0,0,0-.756.4c-.25.152-.5.315-.743.484-.491.337-.977.693-1.467,1.048s-.983.712-1.491,1.055a18.334,18.334,0,0,1-1.58.971c-.277.148-.561.286-.858.409a5.619,5.619,0,0,1-.935.3,3.3,3.3,0,0,1-1.04.067,2.424,2.424,0,0,1-.54-.121h0c-.023.038-.048.076-.073.113a3.9,3.9,0,0,1-.726.816,2.684,2.684,0,0,1-1.024.548,2.117,2.117,0,0,1-.546.073Zm1.643-4.042a.21.21,0,0,0-.067.023.23.23,0,0,0-.094.127.605.605,0,0,0-.023.265,1.137,1.137,0,0,0,.29.6,1.556,1.556,0,0,0,.227.211,2.232,2.232,0,0,0,.129-.682.963.963,0,0,0-.043-.311.335.335,0,0,0-.11-.167.28.28,0,0,0-.083-.046.536.536,0,0,0-.122-.027l-.049,0A.328.328,0,0,0,20.009,9.492Z" transform="translate(20 76)" fill="#fff"/>
  </g>
</svg>
