<svg xmlns="http://www.w3.org/2000/svg" width="24" height="18.281" viewBox="0 0 24 18.281">
  <g id="Group_34933" data-name="Group 34933" transform="translate(0 -61)">
    <path id="Path_93199" data-name="Path 93199" d="M32.813,106.625a2.813,2.813,0,1,1,2.813-2.812A2.816,2.816,0,0,1,32.813,106.625Z" transform="translate(-28.594 -38.125)" fill="#ffa2b4"/>
    <path id="Path_93200" data-name="Path 93200" d="M242.813,66.625a2.813,2.813,0,1,1,2.813-2.812A2.816,2.816,0,0,1,242.813,66.625Z" transform="translate(-228.75)" fill="#ffa2b4"/>
    <path id="Path_93201" data-name="Path 93201" d="M23.3,161H20.484a.7.7,0,1,0,0,1.406H21.6l-7.209,7.209-1.847-1.847a.7.7,0,0,0-.994,0l-5.419,5.419H.7a.7.7,0,0,0,0,1.406H6.422a.7.7,0,0,0,.5-.206l5.128-5.128,1.847,1.847a.7.7,0,0,0,.994,0l7.706-7.706v1.115a.7.7,0,1,0,1.406,0V161.7A.7.7,0,0,0,23.3,161Z" transform="translate(0 -95.312)" fill="#ee264e"/>
    <path id="Path_93202" data-name="Path 93202" d="M216.55,195.978a4.21,4.21,0,0,1-4.662,0A4.215,4.215,0,0,0,210,199.495v1.329l.712-.712a2.109,2.109,0,0,1,2.983,0l.852.852,3.416-3.416A4.239,4.239,0,0,0,216.55,195.978Z" transform="translate(-200.156 -128.651)" fill="#ffa2b4"/>
    <path id="Path_93203" data-name="Path 93203" d="M1.888,235.978A4.215,4.215,0,0,0,0,239.495v3.75H5.548l2.889-2.889v-.861a4.215,4.215,0,0,0-1.888-3.517,4.21,4.21,0,0,1-4.662,0Z" transform="translate(0 -166.776)" fill="#ffa2b4"/>
  </g>
</svg>
