<svg xmlns="http://www.w3.org/2000/svg" width="24" height="23.999" viewBox="0 0 24 23.999">
  <path id="Union_10" data-name="Union 10" d="M11.983,24a11.91,11.91,0,0,1-4.486-.87,2.838,2.838,0,0,0-.38-.142c-.067.01-.165.023-.263.043l-4.361.727a2.677,2.677,0,0,1-1.243.048.948.948,0,0,1-.185-.059,1.534,1.534,0,0,1-.806-.807A1.046,1.046,0,0,1,.2,22.756a2.679,2.679,0,0,1,.065-1.307l.7-4.269a2.351,2.351,0,0,0,.044-.328c-.03-.086-.072-.2-.122-.315A12,12,0,0,1,11.991,0H12a12,12,0,0,1,8.493,20.478A11.929,11.929,0,0,1,12.011,24Zm-4.4-2.8a4.417,4.417,0,0,1,.639.231,10.611,10.611,0,0,0,3.784.721h0A10.152,10.152,0,0,0,19.172,4.814,10.08,10.08,0,0,0,12,1.847h-.01a10.15,10.15,0,0,0-9.4,13.964,4.354,4.354,0,0,1,.2.561,2.125,2.125,0,0,1,.067.538,3.8,3.8,0,0,1-.075.61l-.724,4.351c-.009.033-.018.064-.023.094a.873.873,0,0,1,.1-.022l4.381-.729a3.452,3.452,0,0,1,.541-.067H7.1A2.034,2.034,0,0,1,7.586,21.2Zm8.429-9.211a1.539,1.539,0,1,1,1.539,1.54A1.541,1.541,0,0,1,16.015,11.989Zm-5.543,0a1.539,1.539,0,1,1,1.539,1.54A1.541,1.541,0,0,1,10.472,11.989Zm-5.543,0a1.539,1.539,0,1,1,1.539,1.54A1.541,1.541,0,0,1,4.929,11.989Z" transform="translate(0 0.001)" fill="#0c111d"/>
</svg>
