<svg xmlns="http://www.w3.org/2000/svg" width="23.906" height="24" viewBox="0 0 23.906 24">
  <g id="Group_34932" data-name="Group 34932" transform="translate(-0.999 0)">
    <ellipse id="Ellipse_3103" data-name="Ellipse 3103" cx="5.625" cy="2.344" rx="5.625" ry="2.344" transform="translate(7.327 13.688)" fill="#ffa2b4"/>
    <path id="Path_93188" data-name="Path 93188" d="M141.625,453.788a12.1,12.1,0,0,1-4.518-.795A5.97,5.97,0,0,1,136,452.4v.45c0,1.294,2.518,2.344,5.625,2.344s5.625-1.049,5.625-2.344v-.45a5.973,5.973,0,0,1-1.107.593A12.1,12.1,0,0,1,141.625,453.788Z" transform="translate(-128.673 -431.194)" fill="#ffa2b4"/>
    <path id="Path_93189" data-name="Path 93189" d="M141.625,393.788a12.1,12.1,0,0,1-4.518-.795A5.97,5.97,0,0,1,136,392.4v.45c0,1.294,2.518,2.344,5.625,2.344s5.625-1.049,5.625-2.344v-.45a5.973,5.973,0,0,1-1.107.593A12.1,12.1,0,0,1,141.625,393.788Z" transform="translate(-128.673 -374.007)" fill="#ffa2b4"/>
    <path id="Path_93190" data-name="Path 93190" d="M12.249,214.361c0-.006,0-.011,0-.017,0-1.294-2.518-2.344-5.625-2.344S1,213.049,1,214.344c0,1.258,2.378,2.284,5.362,2.341a4.42,4.42,0,0,1,2.073-1.547A11.563,11.563,0,0,1,12.249,214.361Z" transform="translate(-0.001 -202.062)" fill="#ffa2b4"/>
    <path id="Path_93191" data-name="Path 93191" d="M1,372.4v.45c0,1.2,2.147,2.181,4.922,2.326v-1.405a11.561,11.561,0,0,1-3.815-.777A5.977,5.977,0,0,1,1,372.4Z" transform="translate(-0.001 -354.944)" fill="#ffa2b4"/>
    <path id="Path_93192" data-name="Path 93192" d="M5.922,313.771a11.561,11.561,0,0,1-3.815-.777A5.976,5.976,0,0,1,1,312.4v.45c0,1.2,2.147,2.181,4.922,2.326v-1.341h0c0-.016,0-.032,0-.047S5.922,313.777,5.922,313.771Z" transform="translate(-0.001 -297.757)" fill="#ffa2b4"/>
    <path id="Path_93193" data-name="Path 93193" d="M181.7,4.219h.7V7.735a.7.7,0,0,0,.7.7h2.813a.7.7,0,0,0,.7-.7V4.219h.7a.7.7,0,0,0,.5-1.2L185.012.206a.7.7,0,0,0-.994,0l-2.812,2.813a.7.7,0,0,0,.5,1.2Z" transform="translate(-171.563)" fill="#ee264e"/>
    <path id="Path_93194" data-name="Path 93194" d="M1.7,24.219h.7V26.8a.7.7,0,0,0,.7.7H5.921a.7.7,0,0,0,.7-.7V24.219h.7a.7.7,0,0,0,.5-1.2L5.012,20.206a.7.7,0,0,0-.994,0L1.205,23.019a.7.7,0,0,0,.5,1.2Z" transform="translate(0 -19.063)" fill="#ee264e"/>
    <path id="Path_93195" data-name="Path 93195" d="M361.7,24.219h.7V26.8a.7.7,0,0,0,.7.7h2.813a.7.7,0,0,0,.7-.7V24.219h.7a.7.7,0,0,0,.5-1.2l-2.812-2.813a.7.7,0,0,0-.994,0l-2.812,2.813a.7.7,0,0,0,.5,1.2Z" transform="translate(-343.125 -19.063)" fill="#ee264e"/>
    <path id="Path_93196" data-name="Path 93196" d="M282.25,214.344c0-1.294-2.518-2.344-5.625-2.344S271,213.049,271,214.344c0,.006,0,.011,0,.017a11.563,11.563,0,0,1,3.815.777,4.421,4.421,0,0,1,2.073,1.547C279.872,216.628,282.25,215.6,282.25,214.344Z" transform="translate(-257.345 -202.062)" fill="#ffa2b4"/>
    <path id="Path_93197" data-name="Path 93197" d="M406,373.771v1.405c2.775-.144,4.922-1.13,4.922-2.326v-.45a5.972,5.972,0,0,1-1.107.593A11.562,11.562,0,0,1,406,373.771Z" transform="translate(-386.016 -354.944)" fill="#ffa2b4"/>
    <path id="Path_93198" data-name="Path 93198" d="M405.989,313.771c0,.006,0,.012,0,.017s0,.031,0,.047h0v1.341c2.775-.144,4.922-1.13,4.922-2.326v-.45a5.973,5.973,0,0,1-1.107.593A11.562,11.562,0,0,1,405.989,313.771Z" transform="translate(-386.006 -297.757)" fill="#ffa2b4"/>
  </g>
</svg>
