<svg xmlns="http://www.w3.org/2000/svg" width="24" height="26.09" viewBox="0 0 24 26.09">
  <path id="Path_90409" data-name="Path 90409" d="M23.887,6.96a2.223,2.223,0,0,0-.479-.815,3.435,3.435,0,0,0-.935-.649L13.441.479a3.419,3.419,0,0,0-.992-.433,2.235,2.235,0,0,0-.9,0,3.427,3.427,0,0,0-.991.433L1.527,5.5a3.434,3.434,0,0,0-.935.649,2.22,2.22,0,0,0-.479.815A3.438,3.438,0,0,0,0,8.092V18A3.436,3.436,0,0,0,.113,19.13a2.216,2.216,0,0,0,.479.814,3.43,3.43,0,0,0,.936.65l9.031,5.017a3.414,3.414,0,0,0,.99.433,2.226,2.226,0,0,0,.9,0,3.424,3.424,0,0,0,.992-.433l9.03-5.017a3.433,3.433,0,0,0,.936-.649,2.246,2.246,0,0,0,.479-.814A3.425,3.425,0,0,0,24,18V8.092a3.426,3.426,0,0,0-.113-1.132m-12.341-4.7c.18-.1.366-.2.412-.219a.228.228,0,0,1,.074,0,4.633,4.633,0,0,1,.422.221l8.435,4.686-3.4,1.888L8.6,3.892ZM10.983,23.52l-8.468-4.7c-.19-.106-.387-.215-.428-.25a.209.209,0,0,1-.04-.063,4.78,4.78,0,0,1-.013-.5V8.672l8.949,4.972ZM12,11.882,3.111,6.943l3.4-1.887L15.4,9.994ZM21.966,18c0,.217,0,.443-.011.5a.209.209,0,0,1-.037.067,4.716,4.716,0,0,1-.434.256l-8.468,4.7V13.643l8.949-4.972Z" transform="translate(0 0)" fill="#0c111d"/>
</svg>
