<svg xmlns="http://www.w3.org/2000/svg" width="17.354" height="24" viewBox="0 0 17.354 24">
  <path id="Path_92885" data-name="Path 92885" d="M14.215,24a.92.92,0,0,1-.475-.132L8.677,20.831,3.613,23.868a.923.923,0,0,1-1.39-.913l1-7.534a8.677,8.677,0,1,1,10.907,0l1,7.535A.923.923,0,0,1,14.215,24M8.677,18.923a1.489,1.489,0,0,1,.316.034,1.946,1.946,0,0,1,.613.278L13.049,21.3l-.636-4.793a8.671,8.671,0,0,1-7.47,0L4.306,21.3l3.44-2.064a1.948,1.948,0,0,1,.614-.279,1.477,1.477,0,0,1,.317-.034" fill="#b48425"/>
</svg>
