<svg xmlns="http://www.w3.org/2000/svg" width="22.072" height="24" viewBox="0 0 22.072 24">
  <path id="Path_93248" data-name="Path 93248" d="M20.755,1.884a1.455,1.455,0,0,1,.221.013,2.33,2.33,0,0,1,1.651.98c.445.623.445,1.375.445,2.874V17.382c0,1.5,0,2.252-.446,2.875a2.33,2.33,0,0,1-1.65.98,1.827,1.827,0,0,1-.221.013A6.01,6.01,0,0,1,18.14,20.2a15.041,15.041,0,0,0-5.806-2.06v3.869c0,.306,0,.474-.017.649a3.588,3.588,0,0,1-3.211,3.211c-.175.017-.343.017-.649.017s-.474,0-.649-.017A3.588,3.588,0,0,1,4.6,22.655c-.017-.175-.017-.343-.017-.649V18.114a3.879,3.879,0,0,1-1.37-.257,3.556,3.556,0,0,1-1.937-1.937A6.585,6.585,0,0,1,1,13.357V11.925c0-2.193,0-3.293.52-4.314A4.743,4.743,0,0,1,3.606,5.525c1.021-.52,2.121-.52,4.314-.52h4.116a14.113,14.113,0,0,0,6.1-2.068A6.012,6.012,0,0,1,20.755,1.884Z" transform="translate(-1 -1.884)" fill="#fb2c2c"/>
</svg>
