<svg xmlns="http://www.w3.org/2000/svg" width="21.785" height="24" viewBox="0 0 21.785 24">
  <path id="Path_90417" data-name="Path 90417" d="M312.222,4.534a4.219,4.219,0,0,0-1.856-1.856,6.94,6.94,0,0,0-3.22-.462V.923a.923.923,0,0,0-1.846,0V2.215h-7.015V.923a.923.923,0,0,0-1.846,0V2.216a6.94,6.94,0,0,0-3.22.462,4.22,4.22,0,0,0-1.856,1.856c-.463.908-.463,1.915-.463,3.922v9.3c0,2.006,0,3.013.463,3.921a4.219,4.219,0,0,0,1.856,1.856c.908.463,1.915.463,3.922.463h9.3c2.006,0,3.013,0,3.922-.463a4.218,4.218,0,0,0,1.856-1.856c.463-.908.463-1.915.463-3.922v-9.3c0-2.006,0-3.013-.463-3.921m-5.9,9.78L301.337,19.3a.923.923,0,0,1-1.305,0l-2.215-2.215a.923.923,0,1,1,1.305-1.305l1.563,1.563,4.332-4.332a.923.923,0,0,1,1.305,1.305m4.517-5.453H292.746V8.455a8.353,8.353,0,0,1,.262-3.083,2.385,2.385,0,0,1,1.049-1.049,6.055,6.055,0,0,1,2.382-.261V5.354a.923.923,0,0,0,1.846,0V4.062H305.3V5.354a.923.923,0,0,0,1.846,0V4.062a6.058,6.058,0,0,1,2.382.26,2.387,2.387,0,0,1,1.049,1.049,8.351,8.351,0,0,1,.262,3.083Z" transform="translate(-290.9)" fill="#507eff"/>
</svg>
