<svg xmlns="http://www.w3.org/2000/svg" width="24" height="22.975" viewBox="0 0 24 22.975">
  <path id="Path_90830" data-name="Path 90830" d="M177.649,22.973a1.374,1.374,0,0,1-.251-.024,1.553,1.553,0,0,1-1.086-.789,2.487,2.487,0,0,1-.046-1.709l.973-5.673-4.124-4.016c-.559-.544-.9-.873-.967-1.409a1.553,1.553,0,0,1,.414-1.277,2.485,2.485,0,0,1,1.609-.573l5.7-.833,2.549-5.164c.345-.7.553-1.122,1.042-1.355a1.553,1.553,0,0,1,1.342,0c.488.233.7.655,1.042,1.355L188.4,6.67l5.7.833a2.487,2.487,0,0,1,1.61.573,1.554,1.554,0,0,1,.414,1.277c-.071.536-.408.865-.967,1.409l-4.124,4.016L192,20.452a2.49,2.49,0,0,1-.046,1.709,1.554,1.554,0,0,1-1.086.789,2.486,2.486,0,0,1-1.64-.484l-5.1-2.68-5.1,2.68a3.13,3.13,0,0,1-1.388.508" transform="translate(-172.134 0.001)" fill="#8900e3"/>
</svg>
