<svg xmlns="http://www.w3.org/2000/svg" width="18.355" height="25" viewBox="0 0 18.355 25">
  <path id="Exclusion_8" data-name="Exclusion 8" d="M17239.891,19837h-8.422a5.963,5.963,0,0,1-2.754-.344,3.1,3.1,0,0,1-1.375-1.373,6.025,6.025,0,0,1-.34-2.754v-15.066a6.034,6.034,0,0,1,.34-2.754,3.142,3.142,0,0,1,1.375-1.367,5.994,5.994,0,0,1,2.754-.342h8.422a5.994,5.994,0,0,1,2.754.342,3.112,3.112,0,0,1,1.375,1.367,6.1,6.1,0,0,1,.336,2.754v15.066a6.09,6.09,0,0,1-.336,2.754,3.135,3.135,0,0,1-1.375,1.373A5.963,5.963,0,0,1,17239.891,19837Zm-4.211-7.389a1.478,1.478,0,1,0,1.477,1.484A1.482,1.482,0,0,0,17235.68,19829.613Z" transform="translate(-17226.5 -19812.502)" fill="#6d4c41" stroke="rgba(0,0,0,0)" stroke-width="1"/>
</svg>
