<svg xmlns="http://www.w3.org/2000/svg" width="24" height="24" viewBox="0 0 24 24">
  <g id="Group_34954" data-name="Group 34954" transform="translate(-2 -5.018)">
    <path id="Path_93246" data-name="Path 93246" d="M23.481,17.3a1.6,1.6,0,0,1,.746.087.75.75,0,0,1,.311.344,1.431,1.431,0,0,1,.017.7A11.306,11.306,0,1,1,12.177,6.049a1.431,1.431,0,0,1,.7.017.75.75,0,0,1,.344.311,1.6,1.6,0,0,1,.087.746v9.045a1.756,1.756,0,0,0,.077.745.706.706,0,0,0,.309.309,1.756,1.756,0,0,0,.745.077Z" transform="translate(0 0.413)" fill="#ff9e00"/>
    <path id="Path_93247" data-name="Path 93247" d="M14,3.123a1.6,1.6,0,0,1,.087-.746.75.75,0,0,1,.344-.311,1.431,1.431,0,0,1,.7-.017A11.306,11.306,0,0,1,25.25,12.17a1.432,1.432,0,0,1-.017.7.75.75,0,0,1-.311.344,1.6,1.6,0,0,1-.746.087H15.131a1.756,1.756,0,0,1-.745-.077.706.706,0,0,1-.309-.309A1.755,1.755,0,0,1,14,12.168Z" transform="translate(0.719 3)" fill="#ff9e00"/>
  </g>
</svg>
