<svg xmlns="http://www.w3.org/2000/svg" width="24" height="24" viewBox="0 0 24 24">
  <path id="Path_90788" data-name="Path 90788" d="M156.171,2.554A4.648,4.648,0,0,0,154.127.51c-1-.51-2.11-.51-4.32-.51H139.556c-2.211,0-3.32,0-4.32.51a4.648,4.648,0,0,0-2.044,2.044c-.51,1-.51,2.11-.51,4.32V17.126c0,.194,0,.377,0,.554l5.709-5.709a2.268,2.268,0,0,1,.906-.656,1.616,1.616,0,0,1,1.007,0,2.265,2.265,0,0,1,.906.656l2.252,2.252,4.867-4.867H145.9a1.017,1.017,0,0,1,0-2.034h4.881A1.017,1.017,0,0,1,151.8,8.339V13.22a1.017,1.017,0,1,1-2.034,0V10.794l-4.9,4.9a2.262,2.262,0,0,1-.906.656,1.616,1.616,0,0,1-1.007,0,2.264,2.264,0,0,1-.906-.656L139.8,13.438,132.838,20.4a3.926,3.926,0,0,0,.353,1.046,4.649,4.649,0,0,0,2.044,2.044c1,.51,2.11.51,4.321.51h10.251c2.21,0,3.32,0,4.32-.51a4.649,4.649,0,0,0,2.044-2.044c.51-1,.51-2.11.51-4.32V6.875c0-2.21,0-3.32-.51-4.32" transform="translate(-132.681)" fill="#2e9b88"/>
</svg>
