<svg xmlns="http://www.w3.org/2000/svg" width="21.215" height="24.002" viewBox="0 0 21.215 24.002">
  <g id="Group_31213" data-name="Group 31213" transform="translate(16189 20374)">
    <path id="Path_52180" data-name="Path 52180" d="M11.792,17.771a3.508,3.508,0,0,1-4.64,0,.923.923,0,0,0-1.217,1.384,5.346,5.346,0,0,0,7.078,0,.923.923,0,0,0-1.222-1.384" transform="translate(-16187.866 -20370.492)" fill="#5e35b1"/>
    <path id="Path_52181" data-name="Path 52181" d="M19.87,14.4a12.77,12.77,0,0,1-1.689-6.831h0a7.571,7.571,0,0,0-15.141,0A12.766,12.766,0,0,1,1.346,14.4C.176,16.282-.035,16.621,0,17.108a1.351,1.351,0,0,0,.6,1.067c.391.29.832.29,2.685.29H17.934c1.853,0,2.293,0,2.685-.29a1.352,1.352,0,0,0,.593-1.066c.04-.486-.17-.825-1.342-2.708" transform="translate(-16189 -20374.002)" fill="#5e35b1"/>
  </g>
</svg>
