<svg xmlns="http://www.w3.org/2000/svg" width="24" height="23.785" viewBox="0 0 24 23.785">
  <path id="Path_90418" data-name="Path 90418" d="M210.249,2.758A3.285,3.285,0,0,0,207.783.066,5.537,5.537,0,0,0,206.617,0H190a5.544,5.544,0,0,0-1.166.066,3.284,3.284,0,0,0-2.466,2.692,7.219,7.219,0,0,0-.06,1.273,7.218,7.218,0,0,0,.06,1.273,3.324,3.324,0,0,0,2.155,2.607v9.06c0,2.19,0,3.29.463,4.282a4.43,4.43,0,0,0,1.856,2.026c.908.505,1.915.505,3.922.505h7.089c2.006,0,3.013,0,3.921-.505a4.432,4.432,0,0,0,1.856-2.026c.463-.992.463-2.091.463-4.282V7.911A3.325,3.325,0,0,0,210.249,5.3a7.221,7.221,0,0,0,.06-1.273,7.226,7.226,0,0,0-.06-1.273M200.524,14.11h-4.431a1.012,1.012,0,0,1,0-2.016h4.431a1.012,1.012,0,0,1,0,2.016m7.913-9.2a1.352,1.352,0,0,1-1.016,1.109,1.639,1.639,0,0,1-.277.023l-.057,0H189.529l-.057,0a1.615,1.615,0,0,1-.277-.024,1.351,1.351,0,0,1-1.015-1.108,6.981,6.981,0,0,1-.025-.88,6.977,6.977,0,0,1,.025-.88A1.351,1.351,0,0,1,189.2,2.043,5.359,5.359,0,0,1,190,2.016h16.615a5.335,5.335,0,0,1,.806.027,1.352,1.352,0,0,1,1.015,1.108,6.968,6.968,0,0,1,.025.88,6.966,6.966,0,0,1-.025.88" transform="translate(-186.309)" fill="#0391a2"/>
</svg>
