<svg xmlns="http://www.w3.org/2000/svg" width="22.078" height="24" viewBox="0 0 22.078 24">
  <path id="Path_90421" data-name="Path 90421" d="M21.974,6.4a2.046,2.046,0,0,0-.441-.75,3.16,3.16,0,0,0-.86-.6L12.364.441a3.135,3.135,0,0,0-.912-.4,2.052,2.052,0,0,0-.828,0,3.146,3.146,0,0,0-.912.4L1.405,5.057a3.159,3.159,0,0,0-.86.6A2.043,2.043,0,0,0,.1,6.4,3.161,3.161,0,0,0,0,7.445v9.112A3.163,3.163,0,0,0,.1,17.6a2.04,2.04,0,0,0,.441.749,3.159,3.159,0,0,0,.861.6L9.712,23.56a3.141,3.141,0,0,0,.911.4,2.048,2.048,0,0,0,.83,0,3.15,3.15,0,0,0,.913-.4l8.307-4.615a3.162,3.162,0,0,0,.861-.6,2.069,2.069,0,0,0,.44-.748,3.153,3.153,0,0,0,.1-1.043V7.445a3.15,3.15,0,0,0-.1-1.041M10.621,2.077c.165-.092.337-.187.379-.2a.2.2,0,0,1,.068,0,4.212,4.212,0,0,1,.389.2l7.759,4.311L16.091,8.124,7.913,3.581Zm.418,8.854L2.862,6.388,5.987,4.651l8.177,4.543Z" transform="translate(0 -0.001)" fill="#8e24aa"/>
</svg>
