<svg xmlns="http://www.w3.org/2000/svg" width="18.065" height="24" viewBox="0 0 18.065 24">
  <path id="Path_90785" data-name="Path 90785" d="M85.132,170.418l-.026-.011a.917.917,0,0,0-.912.166l-2.365,2.053-2.049-2a.807.807,0,0,0-1.2,0l-1.994,1.95-2-1.953a.807.807,0,0,0-1.2,0l-2.045,2-2.327-2.058a1.021,1.021,0,0,0-.951-.16l-.026.011a.877.877,0,0,0-.485.81V193.48a.877.877,0,0,0,.485.81l.026.011a1.025,1.025,0,0,0,.96-.167l2.319-2.051,2.049,2a.807.807,0,0,0,1.2,0l1.994-1.95,2,1.953a.807.807,0,0,0,1.2,0l2.046-2,2.366,2.053a.866.866,0,0,0,.579.218,1.157,1.157,0,0,0,.333-.052l.026-.011a.877.877,0,0,0,.485-.81V171.228a.877.877,0,0,0-.485-.81m-3.224,16.4a.842.842,0,0,1-.864.864H72.133a.873.873,0,0,1-.009-1.747h8.918a.843.843,0,0,1,.864.864v.018Zm0-4.45a.843.843,0,0,1-.864.864H72.133a.873.873,0,0,1-.009-1.747h8.919a.844.844,0,0,1,.864.864v.018Zm0-4.451a.843.843,0,0,1-.864.864H72.133a.873.873,0,0,1-.009-1.746h8.919a.843.843,0,0,1,.864.864v.018Z" transform="translate(-67.551 -170.354)" fill="#45970f"/>
</svg>
