<svg xmlns="http://www.w3.org/2000/svg" width="23.451" height="24" viewBox="0 0 23.451 24">
  <path id="Path_90795" data-name="Path 90795" d="M181.065,2.5a4.545,4.545,0,0,0-2-2C178.089,0,177,0,174.844,0H164.827c-2.158,0-3.243,0-4.221.5a4.545,4.545,0,0,0-2,2c-.5.978-.5,2.061-.5,4.221v7.393a9.271,9.271,0,0,0,.157,2.375,4.586,4.586,0,0,0,3.232,3.234,5.537,5.537,0,0,0,1.381.149v1.8a2.559,2.559,0,0,0,.348,1.737,1.587,1.587,0,0,0,1.244.6h0c.556,0,.938-.308,1.572-.813l2.846-2.278a7.349,7.349,0,0,1,1.024-.753,2.584,2.584,0,0,1,.658-.229,7.137,7.137,0,0,1,1.272-.054h3c2.16,0,3.245,0,4.223-.5a4.545,4.545,0,0,0,2-2c.5-.978.5-2.061.5-4.221V6.717c0-2.16,0-3.243-.5-4.221m-7.95,2.274a1.59,1.59,0,1,1-1.59,1.59,1.591,1.591,0,0,1,1.59-1.59m-6.558,0a1.59,1.59,0,1,1-1.59,1.59,1.591,1.591,0,0,1,1.59-1.59m8.2,8.206a6.755,6.755,0,0,1-9.844,0,.994.994,0,0,1,1.493-1.312,4.771,4.771,0,0,0,6.859,0,.994.994,0,0,1,1.493,1.314" transform="translate(-158.11)" fill="#8a4787"/>
</svg>
