<svg xmlns="http://www.w3.org/2000/svg" width="24" height="24" viewBox="0 0 24 24">
  <path id="Path_90791" data-name="Path 90791" d="M188.277,12.508a1.334,1.334,0,0,1,0-1.015l.8-1.931a3.175,3.175,0,0,0-1.719-4.148l-1.931-.8a1.311,1.311,0,0,1-.718-.718.425.425,0,0,1-.018-.042l-.783-1.888A3.173,3.173,0,0,0,179.762.246l-1.936.8a1.317,1.317,0,0,1-1.015,0l-1.931-.8a3.172,3.172,0,0,0-4.148,1.717l-.8,1.933a1.317,1.317,0,0,1-.72.716l-1.931.8a3.172,3.172,0,0,0-1.719,4.146l.8,1.936a1.33,1.33,0,0,1,0,1.017l-.8,1.931a3.172,3.172,0,0,0,1.719,4.146l1.931.8a1.323,1.323,0,0,1,.72.72l.8,1.935a3.164,3.164,0,0,0,4.144,1.717l1.935-.8a1.317,1.317,0,0,1,1.015,0l1.931.8a3.175,3.175,0,0,0,4.148-1.719l.8-1.933a1.326,1.326,0,0,1,.72-.718l1.933-.8a3.179,3.179,0,0,0,1.719-1.719,3.127,3.127,0,0,0,.24-1.215,3.181,3.181,0,0,0-.24-1.215ZM174,7.2A1.477,1.477,0,1,1,172.52,8.68,1.479,1.479,0,0,1,174,7.2m6.645,9.6a1.477,1.477,0,1,1,1.477-1.477,1.479,1.479,0,0,1-1.477,1.477M182.4,8.224l-8.86,8.86a.92.92,0,0,1-1.305,0,.924.924,0,0,1,0-1.305l8.86-8.86A.923.923,0,0,1,182.4,8.224" transform="translate(-165.32 -0.002)" fill="#ef6e2b"/>
</svg>
