<svg xmlns="http://www.w3.org/2000/svg" width="24" height="23.981" viewBox="0 0 24 23.981">
  <path id="Path_90807" data-name="Path 90807" d="M23.485,2.494a4.6,4.6,0,0,0-2.038-2c-1-.5-2.108-.5-4.317-.5H6.888C4.679,0,3.571,0,2.57.5a4.591,4.591,0,0,0-2.042,2c-.51.981-.51,2.06-.51,4.218V14.1a9.116,9.116,0,0,0,.159,2.374,4.638,4.638,0,0,0,3.3,3.224,5.893,5.893,0,0,0,1.413.15v1.8a2.509,2.509,0,0,0,.36,1.735,1.631,1.631,0,0,0,1.271.6h0c.57,0,.96-.306,1.608-.806L11.04,20.9a7.384,7.384,0,0,1,1.05-.753,2.7,2.7,0,0,1,.67-.23,7.612,7.612,0,0,1,1.3-.053h3.073c2.209,0,3.317,0,4.317-.5a4.6,4.6,0,0,0,2.038-2c.51-.981.51-2.06.51-4.218V6.715c0-2.158,0-3.244-.514-4.221M5.912,6.554h6.1a.993.993,0,0,1,0,1.986h-6.1a.993.993,0,0,1,0-1.986m9.756,6.156H5.912a.993.993,0,0,1,0-1.986h9.756a.993.993,0,0,1,0,1.986" transform="translate(0)" fill="#1e88e5"/>
</svg>
