<svg xmlns="http://www.w3.org/2000/svg" width="24" height="23.998" viewBox="0 0 24 23.998">
  <path id="Union_34" data-name="Union 34" d="M13836.119,13180h-10.24c-2.213,0-3.322,0-4.322-.51a4.666,4.666,0,0,1-2.047-2.045c-.51-1-.51-2.109-.51-4.326v-10.248c0-2.2,0-3.311.51-4.324a4.674,4.674,0,0,1,2.047-2.035c1-.51,2.109-.51,4.322-.51h10.24c2.221,0,3.334,0,4.334.51a4.658,4.658,0,0,1,2.035,2.035c.512,1.014.512,2.121.512,4.324v10.248c0,2.217,0,3.324-.512,4.326a4.64,4.64,0,0,1-2.035,2.045C13839.453,13180,13838.34,13180,13836.119,13180Zm-7.541-18a.95.95,0,0,0-.127.006,1.656,1.656,0,0,0-1.2.633,2.557,2.557,0,0,0-.326,1.652v7.4a2.557,2.557,0,0,0,.326,1.652,1.6,1.6,0,0,0,1.2.645h.1a2.724,2.724,0,0,0,1.451-.609l5.77-3.709.066-.041.016-.012a2.266,2.266,0,0,0,1.016-1,1.674,1.674,0,0,0,0-1.26,2.274,2.274,0,0,0-1.008-.979l-.02-.018-.07-.041-5.77-3.709-.076-.053A2.617,2.617,0,0,0,13828.578,13162Zm.387,9.633h0v-7.271l5.643,3.633-5.641,3.639Z" transform="translate(-13819 -13156.003)" fill="#7b1fcb"/>
</svg>
