<svg xmlns="http://www.w3.org/2000/svg" width="24" height="24.001" viewBox="0 0 24 24.001">
  <path id="Path_90790" data-name="Path 90790" d="M8.345,24a3.182,3.182,0,0,1-2.932-1.959l-.8-1.934a1.32,1.32,0,0,0-.718-.72l-1.932-.8A3.174,3.174,0,0,1,.243,14.442l.8-1.932a1.32,1.32,0,0,0,0-1.016l-.8-1.936A3.174,3.174,0,0,1,1.962,5.411l1.931-.8a1.321,1.321,0,0,0,.72-.718l.8-1.931A3.174,3.174,0,0,1,9.56.243l1.931.8a1.318,1.318,0,0,0,1.016,0l1.935-.8a3.174,3.174,0,0,1,4.145,1.718l.784,1.893c.006.012.012.025.017.038a1.322,1.322,0,0,0,.718.72l1.932.8A3.174,3.174,0,0,1,23.757,9.56l-.8,1.931a1.333,1.333,0,0,0,0,1.016l.8,1.933a3.174,3.174,0,0,1-1.718,4.148l-1.931.8a1.32,1.32,0,0,0-.72.719l-.8,1.932a3.174,3.174,0,0,1-4.148,1.718l-1.931-.8a1.32,1.32,0,0,0-1.016,0l-1.934.8A3.172,3.172,0,0,1,8.345,24m0-22.154a1.332,1.332,0,0,0-1.227.821L6.317,4.6A3.155,3.155,0,0,1,4.6,6.316l-1.931.8a1.328,1.328,0,0,0-.719,1.736l.8,1.936a3.152,3.152,0,0,1,0,2.427l-.8,1.933a1.329,1.329,0,0,0,.72,1.734l1.933.8A3.154,3.154,0,0,1,6.318,19.4l.8,1.933a1.328,1.328,0,0,0,1.734.718l1.932-.8a3.152,3.152,0,0,1,2.428,0l1.932.8a1.328,1.328,0,0,0,1.735-.719l.8-1.933A3.155,3.155,0,0,1,19.4,17.683l1.931-.8a1.328,1.328,0,0,0,.719-1.737l-.8-1.931a3.19,3.19,0,0,1,0-2.43l.8-1.931a1.329,1.329,0,0,0-.719-1.736l-1.933-.8a3.157,3.157,0,0,1-1.7-1.67c-.007-.015-.014-.03-.02-.045l-.8-1.934a1.328,1.328,0,0,0-1.735-.718l-1.935.8a3.152,3.152,0,0,1-2.427,0l-1.933-.8a1.326,1.326,0,0,0-.508-.1M7.57,17.354a.923.923,0,0,1-.653-1.576l8.86-8.861a.923.923,0,1,1,1.305,1.305l-8.86,8.861a.92.92,0,0,1-.653.27m7.753-.554A1.477,1.477,0,1,1,16.8,15.323,1.478,1.478,0,0,1,15.323,16.8M8.677,10.154a1.477,1.477,0,1,1,1.477-1.477,1.478,1.478,0,0,1-1.477,1.477" transform="translate(0)" fill="#0c111d"/>
</svg>
