<svg xmlns="http://www.w3.org/2000/svg" width="24" height="24" viewBox="0 0 24 24">
  <g id="Group_34942" data-name="Group 34942" transform="translate(0 -0.002)">
    <g id="Group_34935" data-name="Group 34935" transform="translate(0 22.595)">
      <g id="Group_34934" data-name="Group 34934">
        <path id="Path_93204" data-name="Path 93204" d="M23.3,482H.7a.7.7,0,1,0,0,1.406H23.3a.7.7,0,0,0,0-1.406Z" transform="translate(0 -481.999)" fill="#ffa2b4"/>
      </g>
    </g>
    <g id="Group_34937" data-name="Group 34937" transform="translate(1.406 15.564)">
      <g id="Group_34936" data-name="Group 34936">
        <path id="Path_93205" data-name="Path 93205" d="M35.016,332H30.7a.7.7,0,0,0-.7.7v4.922h5.719V332.7A.7.7,0,0,0,35.016,332Z" transform="translate(-30 -332)" fill="#ee264e"/>
      </g>
    </g>
    <g id="Group_34939" data-name="Group 34939" transform="translate(8.531 11.345)">
      <g id="Group_34938" data-name="Group 34938">
        <path id="Path_93206" data-name="Path 93206" d="M186.92,242H182.7a.7.7,0,0,0-.7.7v9.141h5.625V242.7A.7.7,0,0,0,186.92,242Z" transform="translate(-181.998 -242)" fill="#ee264e"/>
      </g>
    </g>
    <g id="Group_34941" data-name="Group 34941" transform="translate(12.75 0.002)">
      <g id="Group_34940" data-name="Group 34940" transform="translate(0 0)">
        <path id="Path_93207" data-name="Path 93207" d="M283.038,5.833,278.116.208a.7.7,0,0,0-.994,0L272.2,5.833a.7.7,0,0,0,.5,1.2h2.109V21.189h5.625V7.033h2.109a.7.7,0,0,0,.5-1.2Z" transform="translate(-271.994 -0.002)" fill="#ee264e"/>
      </g>
    </g>
  </g>
</svg>
