<svg xmlns="http://www.w3.org/2000/svg" width="24" height="24.004" viewBox="0 0 24 24.004">
  <path id="Path_50941" data-name="Path 50941" d="M23.948,17.686V17.5l0-10.91a.965.965,0,0,0,0-.1.715.715,0,0,0-.006-.1V6.369a9.055,9.055,0,0,0-.4-3.876.934.934,0,0,0-.054-.13A4.2,4.2,0,0,0,21.639.516.984.984,0,0,0,21.51.462,8.842,8.842,0,0,0,17.735.055H17.5l-5.426,0a.737.737,0,0,0-.147,0L6.59.061a.89.89,0,0,0-.206,0H6.369a9.036,9.036,0,0,0-3.877.4.934.934,0,0,0-.13.054A4.2,4.2,0,0,0,.515,2.364a1.112,1.112,0,0,0-.054.13A8.837,8.837,0,0,0,.055,6.267V6.5l0,10.911a.927.927,0,0,0,0,.1.988.988,0,0,0,0,.1v.013a9.06,9.06,0,0,0,.4,3.877,1.111,1.111,0,0,0,.054.13,4.2,4.2,0,0,0,1.848,1.849.934.934,0,0,0,.13.054A9.079,9.079,0,0,0,5.318,24a8.063,8.063,0,0,0,.948-.055H6.5l5.427,0a1.177,1.177,0,0,0,.147,0l5.337,0a.891.891,0,0,0,.206,0h.013a9.073,9.073,0,0,0,3.878-.4.984.984,0,0,0,.129-.054,4.2,4.2,0,0,0,1.848-1.849.933.933,0,0,0,.054-.13,9.07,9.07,0,0,0,.407-3.824M2.184,3.138a2.372,2.372,0,0,1,.953-.953,7.284,7.284,0,0,1,2.431-.338V5.569H1.844a7.233,7.233,0,0,1,.339-2.431M5.568,22.16a7.368,7.368,0,0,1-2.431-.341,2.364,2.364,0,0,1-.953-.953,7.239,7.239,0,0,1-.337-2.431H5.568Zm5.514-.045-3.676,0V18.435h3.676Zm0-5.518H1.893l-.006-9.19h9.195Zm0-11.028H7.406V1.893l3.676,0Zm7.352-3.724a7.159,7.159,0,0,1,2.431.339,2.372,2.372,0,0,1,.953.953,7.239,7.239,0,0,1,.338,2.431H18.434Zm-5.514.044H16.6V5.569H12.92ZM16.6,22.112H12.92V18.435H16.6ZM12.92,7.407h9.19V16.6H12.92Zm8.9,13.459a2.364,2.364,0,0,1-.953.953,7.32,7.32,0,0,1-2.431.339V18.435h3.725a7.225,7.225,0,0,1-.341,2.431" transform="translate(0 0)" fill="#0c111d"/>
</svg>
